<svg id="Layer_1" height="512" viewBox="0 0 512 512" width="512" xmlns="http://www.w3.org/2000/svg" data-name="Layer 1"><path d="m466.51 362.99s-8.23 11.08-17.62 12.05c-7.45.77-15.63-4.81-21.03-27.3 0 0-39.94 20.29-71.46 27.41l-202.6 2.59-59.49-22.88s-5.52 23.54-20.83 27.2c-9.16-4.53-15.28-8.39-15.28-8.39s5.6 37.12-42.2 48.31q277.05 127.11 480-12.21s-32.54-7.12-29.49-46.78z" fill="#5f5ba3"/><path d="m69.98 411.816c21.674-15.249 18.22-38.146 18.22-38.146s6.12 3.86 15.28 8.39c8.507-2.034 13.988-10.2 17.182-17.065l-26.352-10.135s-5.52 23.54-20.83 27.2c-9.16-4.53-15.28-8.39-15.28-8.39s5.6 37.12-42.2 48.31q140.772 64.585 262.413 60.37-97.191-3.294-206.135-48.844a12.443 12.443 0 0 1 -2.298-21.69z" fill="#43437a"/><path d="m394.63 210.87c12.13 14.93-3.34 47.58-21.72 62.51s-43.11 14.91-55.24-.02-7.06-39.14 11.32-54.07 53.52-23.36 65.64-8.42z" fill="#f9f9f9"/><path d="m380.95 155.81-20.64 32.57c-15.14-11.28-20.59-25.43-16.62-42.49z" fill="#b2ff8a"/><path d="m360.27 93 7.5 37.82c-18.74 2.27-32.45-4.22-41.33-19.32z" fill="#ffce55"/><path d="m281.7 141.58 38.18 5.3c-3.98 18.45-14.61 29.27-31.78 32.72z" fill="#d32d45"/><path d="m307.87 30.28c5.98 3.39 5.91 14.81-.16 25.5s-15.83 16.6-21.81 13.21-5.9-14.8.17-25.5 15.83-16.6 21.8-13.21z" fill="#f3a38d"/><path d="m295.67 95.53c6.54 10.4 7.13 21.8 1.32 25.46s-15.84-1.81-22.38-12.21-7.14-21.81-1.32-25.47 15.84 1.81 22.38 12.22z" fill="#f3a38d"/><path d="m298.73 208.03c-3.35 15.55-29.78 39.33-45.59 41.03 5.96-12.64 21.7-35.68 45.59-41.03z" fill="#ffede1"/><path d="m225.97 285.78c10.11-9.66 33.06-25.53 57.27-21.96-8.7 13.31-41.9 26.04-57.27 21.96z" fill="#f9dfcd"/><path d="m243.72 99.81c-12.01-2.62-22.93.68-24.4 7.4-.79 3.58 1.29 7.4 5.21 10.59l23.66 7.18h.01c7.66-.4 13.55-3.45 14.6-8.26 1.47-6.71-7.07-14.29-19.08-16.91z" fill="#f5dac5"/><path d="m250.12 36.38c6.78 1.09 10.7 11.82 8.74 23.95s-9.05 21.09-15.83 19.99-10.7-11.82-8.74-23.95 9.05-21.09 15.83-19.99z" fill="#f5dac5"/><path d="m180.43 256.14c11.87-7.39 37.59-18.2 60.56-9.74-11.25 11.24-46.35 16.89-60.56 9.74z" fill="#f9dfcd"/><path d="m220.18 73.79c2.98 6.19-3.59 15.53-14.66 20.85s-22.48 4.63-25.45-1.57 3.59-15.53 14.66-20.85 22.48-4.63 25.45 1.57z" fill="#f3a38d"/><path d="m211.1 287.09c-14.88 5.61-49.19-3.72-59.18-16.09 13.85-1.83 41.74-1.09 59.18 16.09z" fill="#ffede1"/><path d="m127.33 116.8a2.152 2.152 0 0 1 -.06-3.05c0-.01.01-.01.01-.02a12.028 12.028 0 0 0 -1.61-17.87 12.357 12.357 0 0 0 -16.33 1.85c-2.91 3.41-2.74 8.34-1.23 12.31a.742.742 0 0 1 .05.25.6.6 0 0 1 -.18.43.646.646 0 0 1 -.67.18c-4.22-1.29-9.35-1.01-12.58 2.44a12.036 12.036 0 0 0 16.32 17.61 13.33 13.33 0 0 0 1.28-1.2 2.163 2.163 0 0 1 3.05-.14l14.96 13.98 11.9-12.84z" fill="#fcc581"/><path d="m362.85 236c6.06 7.47.77 21.81-6.7 27.88a17.417 17.417 0 0 1 -21.96-27.04c7.47-6.07 22.6-8.31 28.66-.84z" fill="#ffce55"/><path d="m215.84 154.65c19.32 18.05 22.34 46.22 6.74 62.92s-43.91 15.59-63.23-2.46a55.307 55.307 0 0 1 -16.25-30.28 164.569 164.569 0 0 0 -6.13-22.03c-1.15-2.91-4.49-8.25-5.79-11.1a13.165 13.165 0 0 1 -.84-8.13 17.01 17.01 0 0 1 4.27-8.2 16.442 16.442 0 0 1 7.63-4.64 14.916 14.916 0 0 1 8.45.1c3.1.97 9.19 3.2 12.31 4.12 5.33 1.58 16.05 4.66 21.55 5.53 10.8 1.73 22.12 5.6 31.29 14.17z" fill="#ed5950"/><path d="m224.53 117.8c.99-3.25 2.82-5.63 5.39-6.59 5.92-2.19 13.72 3.86 18.27 13.77.41.89.8 1.81 1.15 2.76 4.29 11.52 2.54 22.8-3.9 25.19s-15.14-5-19.42-16.52c-2.57-6.91-2.97-13.74-1.49-18.61z" fill="#f3a38d"/><path d="m357.39 393.95c10.82 10.82-6.47 20.82-6.47 20.82 2.17 19.92-22.64 21.66-22.64 21.66-9.74 24.7-34.2 7.96-34.2 7.96-8.9 24.73-30.76 8.28-30.76 8.28-27.06 10.82-37.89-5.42-37.89-5.42-27.06 10.83-37.89-5.41-37.89-5.41-32.73 11.15-29.77-18.95-29.77-18.95-30.41-3.46-12.06-25.98-12.06-25.98s-14.84-17.8 8.09-19.17c-9.16-9.15-6.91-25.42 12.2-22.37-2.15-15.07 9.32-21.11 24.41-20.34 4.33-17.8 15.88-27.04 33.56-19.33 12.2-29.49 30.5-5.08 30.5-5.08s24.41-27.46 29.5 9.15c0 0 29.49-11.18 26.44 18.31 20.34-7.12 35.08 3.44 23.39 19.32 27.45-6.1 22.6 17.75 22.6 17.75 11.87 6.93.99 18.8.99 18.8z" fill="#ffede1"/><path d="m189.35 215.11a55.307 55.307 0 0 1 -16.25-30.28 164.569 164.569 0 0 0 -6.13-22.03c-1.15-2.91-4.49-8.25-5.79-11.1a13.165 13.165 0 0 1 -.84-8.13 17 17 0 0 1 4.233-8.157c-.559-.164-1.094-.321-1.573-.463-3.12-.92-9.21-3.15-12.31-4.12a14.916 14.916 0 0 0 -8.45-.1 16.442 16.442 0 0 0 -7.63 4.64 17.01 17.01 0 0 0 -4.27 8.2 13.165 13.165 0 0 0 .84 8.13c1.3 2.85 4.64 8.19 5.79 11.1a164.569 164.569 0 0 1 6.13 22.03 55.307 55.307 0 0 0 16.25 30.28c14.46 13.51 33.955 17.522 49.39 11.689a53.758 53.758 0 0 1 -19.39-11.689z" fill="#bf4441"/><path d="m217.54 441.84c-32.73 11.15-29.77-18.95-29.77-18.95-30.41-3.46-12.06-25.98-12.06-25.98s-14.84-17.8 8.09-19.17c-9.16-9.15-6.91-25.42 12.2-22.37-2.15-15.07 9.32-21.11 24.41-20.34 4.33-17.8 15.88-27.04 33.56-19.33a34.113 34.113 0 0 1 5.994-10.086 43.563 43.563 0 0 0 -5.494 5.006s-18.3-24.41-30.5 5.08c-17.68-7.71-29.23 1.53-33.56 19.33-15.09-.77-26.56 5.27-24.41 20.34-19.11-3.05-21.36 13.22-12.2 22.37-22.93 1.37-8.09 19.17-8.09 19.17s-18.35 22.52 12.06 25.98c0 0-2.96 30.1 29.77 18.95 0 0 10.563 15.8 36.858 5.8a20.735 20.735 0 0 1 -6.858-5.8z" fill="#dbc9bd"/><g fill="#284268"><path d="m91.3 471.332c-21.044-7.081-42.73-15.53-64.456-25.114a3 3 0 1 0 -2.422 5.49c21.891 9.656 43.749 18.173 64.964 25.312a3 3 0 0 0 1.914-5.688z"/><path d="m118.338 479.8q-4.416-1.28-8.857-2.633a3 3 0 1 0 -1.75 5.74q4.482 1.365 8.939 2.657a3 3 0 0 0 1.668-5.764z"/><path d="m257.769 346.993a12.038 12.038 0 0 0 -8.652 7.7c-3.971-1.615-7.368-1.677-10.124-.177-4.848 2.639-5.278 8.784-5.311 9.476a2.992 2.992 0 0 0 2.836 3.129h.163a3.01 3.01 0 0 0 2.994-2.829c.054-.895.573-3.645 2.2-4.518 1.526-.823 4.279-.162 7.748 1.853a3 3 0 0 0 4.491-2.285c.342-3.308 2.33-5.967 4.833-6.47 2.79-.555 5.722 1.573 8.053 5.848a3 3 0 0 0 5.268-2.871c-3.619-6.64-9.045-9.949-14.499-8.856z"/><path d="m199.294 383.434a13.978 13.978 0 0 0 -7.5 10.43 11.135 11.135 0 0 0 -7.769-.78c-6.715 1.887-9.272 9.979-9.542 10.895a3 3 0 0 0 5.753 1.7c.487-1.615 2.409-5.989 5.425-6.826 2.617-.727 5.744 1.46 7.905 3.421a3 3 0 0 0 4.747-3.463 7.787 7.787 0 0 1 3.562-9.964c3.9-1.861 8.2 1.009 11.532 7.665a3 3 0 0 0 5.367-2.684c-5.859-11.721-13.906-13.052-19.48-10.394z"/><path d="m317.688 394.646c-4.755-3.059-11.345-3.259-19.585-.586a3 3 0 0 0 1.849 5.707c6.444-2.087 11.319-2.114 14.488-.075 2.9 1.864 4.695 5.7 5.347 11.41a3 3 0 0 0 2.977 2.659 2.858 2.858 0 0 0 .344-.02 3 3 0 0 0 2.64-3.321c-.866-7.582-3.579-12.889-8.06-15.774z"/><path d="m92.537 111.276a15.033 15.033 0 0 0 20.4 21.982q.525-.426 1.011-.9l13.225 12.359a16.023 16.023 0 0 0 1.276 8.222c.621 1.367 1.608 3.137 2.652 5.011a64.379 64.379 0 0 1 3.079 5.949 161.638 161.638 0 0 1 5.978 21.5 58.232 58.232 0 0 0 17.142 31.901c10.714 10.012 24.1 15.074 36.814 15.074 11.615 0 22.681-4.224 30.654-12.755 8.15-8.721 11.885-20.554 10.519-33.317a54.609 54.609 0 0 0 -17.4-33.841c-8.418-7.866-19.171-12.753-32.871-14.938a209.183 209.183 0 0 1 -21.175-5.446c-1.649-.487-4.232-1.38-6.731-2.244-2.107-.728-4.1-1.417-5.533-1.865a17.828 17.828 0 0 0 -8.434-.494l-13.143-12.288a15.032 15.032 0 0 0 -2.533-21.729 15.413 15.413 0 0 0 -20.415 2.311 13.931 13.931 0 0 0 -2.79 11.483c-4.033-.346-8.512.588-11.725 4.025zm53.8 21.9a11.6 11.6 0 0 1 3.458.521c1.348.42 3.3 1.094 5.36 1.808 2.562.886 5.211 1.8 6.992 2.327 7.124 2.1 16.711 4.786 21.928 5.618 12.482 1.991 22.2 6.372 29.72 13.4a48.613 48.613 0 0 1 15.528 30.1c1.178 11-2 21.155-8.936 28.582-14.447 15.459-40.908 14.289-58.989-2.606-9.906-9.258-13.814-20.689-15.348-28.648a166.007 166.007 0 0 0 -6.29-22.578 65.285 65.285 0 0 0 -3.418-6.664c-.983-1.765-1.91-3.431-2.43-4.574-1.82-4-.657-9.247 2.894-13.046a13.163 13.163 0 0 1 9.53-4.243zm-39.9-19.427a3.647 3.647 0 0 0 4.478-4.8c-1.078-2.828-1.46-6.754.7-9.291a9.374 9.374 0 0 1 12.251-1.4 9.034 9.034 0 0 1 1.222 13.424l-.013.013a5.173 5.173 0 0 0 -1.411 3.732 5.081 5.081 0 0 0 1.619 3.566l11.558 10.8a19.513 19.513 0 0 0 -4.421 3.523 20.259 20.259 0 0 0 -3.391 4.93l-11.602-10.846a5.064 5.064 0 0 0 -3.67-1.373 5.17 5.17 0 0 0 -3.626 1.662 9.459 9.459 0 0 1 -.969.9 9.1 9.1 0 0 1 -11.558-.231 9.031 9.031 0 0 1 -.682-12.99c2.428-2.596 6.507-2.539 9.515-1.622z"/><path d="m345.188 270.764a20.321 20.321 0 0 0 12.85-4.558 30.481 30.481 0 0 0 9.42-14.921c1.951-6.864 1.142-12.964-2.279-17.177s-9.217-6.253-16.342-5.757a30.5 30.5 0 0 0 -16.538 6.155 20.409 20.409 0 0 0 12.889 36.258zm-9.107-31.6a23.17 23.17 0 0 1 14.319-4.886c4.372 0 8.226 1.279 10.121 3.612 2.122 2.613 2.546 6.9 1.167 11.755a24.647 24.647 0 0 1 -7.431 11.9 14.417 14.417 0 0 1 -18.176-22.384z"/><path d="m315.34 275.249c6.643 8.182 16.734 12.281 27.629 12.281 10.671 0 22.113-3.936 31.829-11.825 18.528-15.044 36-49.693 22.164-66.73s-51.331-7.054-69.86 7.989c-19.634 15.944-24.912 42.091-11.762 58.285zm15.544-53.627c11.487-9.327 29.03-15.525 42.938-15.525 7.954 0 14.721 2.028 18.482 6.659 10.335 12.729-3.232 43.63-21.287 58.291-17.067 13.857-39.955 14.047-51.019.421s-6.181-35.988 10.886-49.846z"/><path d="m320.3 143.9-38.189-5.295a3 3 0 0 0 -3.37 3.47l6.4 38.02a3 3 0 0 0 2.958 2.5 3.037 3.037 0 0 0 .591-.059c18.422-3.7 29.9-15.485 34.129-35.032a3 3 0 0 0 -2.52-3.606zm-29.772 32.05-5.192-30.84 30.851 4.278c-3.904 14.261-12.335 22.99-25.663 26.566z"/><path d="m363.211 92.418a3 3 0 0 0 -4.382-2.048l-33.829 18.495a3 3 0 0 0 -1.147 4.153c8.305 14.12 20.689 21.243 36.881 21.243a61.62 61.62 0 0 0 7.395-.463 3 3 0 0 0 2.581-3.563zm-32.53 20.18 27.44-15 6.059 30.551c-14.746.978-25.756-4.128-33.499-15.549z"/><path d="m342.149 143.315a3.005 3.005 0 0 0 -1.378 1.892c-4.264 18.3 1.707 33.634 17.748 45.576a2.992 2.992 0 0 0 1.791.594 3.044 3.044 0 0 0 .545-.05 3 3 0 0 0 1.989-1.345l20.638-32.565a3 3 0 0 0 -1.761-4.5l-37.255-9.924a3 3 0 0 0 -2.317.322zm3.858 6.293 30.22 8.05-16.674 26.309c-11.362-9.456-15.813-20.746-13.546-34.359z"/><path d="m151.524 268.028a3 3 0 0 0 -1.94 4.86c8.549 10.58 32.647 18.857 50.314 18.857a35.5 35.5 0 0 0 12.262-1.845 3 3 0 0 0 1.048-4.945c-16.577-16.33-43.591-19.323-61.684-16.927zm53.182 17.487c-13.263 1.61-34.725-4.116-45.792-12.126 14.532-.706 32.704 2.169 45.792 12.126z"/><path d="m243.915 245.753a3 3 0 0 0 -1.893-2.172c-21.834-8.041-47.676.364-63.175 10.008a3 3 0 0 0 .236 5.226c4.764 2.4 11.558 3.488 19.03 3.488 16.625 0 36.6-5.4 44.993-13.784a3 3 0 0 0 .809-2.766zm-56.126 9.673c12.951-6.627 30.684-11.508 46.719-7.827-11.422 6.935-33.335 10.563-46.719 7.827z"/><path d="m250.691 250.8a3 3 0 0 0 2.444 1.261 2.891 2.891 0 0 0 .321-.018c17.1-1.835 44.58-26.565 48.2-43.379a3 3 0 0 0 -3.589-3.559c-22.7 5.086-39.854 26.168-47.646 42.675a3 3 0 0 0 .27 3.02zm43.245-38.244c-5.833 12.022-22.274 26.957-35 31.918 7.283-12.595 19.542-26.314 35-31.92z"/><path d="m225.2 288.675a29.479 29.479 0 0 0 7.509.865c17.88 0 44.889-11.6 53.042-24.076a3 3 0 0 0 -2.073-4.61c-23.027-3.393-46.59 10.137-59.781 22.753a3 3 0 0 0 1.3 5.068zm51.064-22.357q.441 0 .882.009c-9.756 9.132-30.458 17.179-44.12 17.244 11.12-8.979 27.098-17.253 43.242-17.253z"/><path d="m216.393 106.567c-.9 4.107.843 8.506 4.806 12.286-1.085 5.266-.5 11.868 2.009 18.6a35.849 35.849 0 0 0 9.768 14.719c3.269 2.783 6.676 4.218 9.89 4.218a10.288 10.288 0 0 0 3.616-.648c4.18-1.553 6.984-5.647 7.9-11.528a35.469 35.469 0 0 0 -1.946-16.718c7.212-1.3 12.18-5 13.3-10.139.955-4.355-.972-8.927-5.424-12.875a38.748 38.748 0 0 0 -33.61-7.349c-5.702 1.73-9.361 5.082-10.309 9.434zm32.055 36.733c-.556 3.585-2.034 6.072-4.056 6.824s-4.765-.166-7.529-2.517a29.83 29.83 0 0 1 -8.032-12.241c-3.955-10.636-2.047-19.783 2.14-21.34a4.232 4.232 0 0 1 1.481-.254c4.287 0 10.558 5.541 14.08 15.013a29.827 29.827 0 0 1 1.916 14.515zm-5.369-40.562a29.8 29.8 0 0 1 13.248 6.24c2.713 2.405 4 4.993 3.542 7.1-.624 2.866-4.5 5.063-9.886 5.728-5.38-10.284-14.039-16.029-21.1-13.406a10.782 10.782 0 0 0 -5.2 4.248 6.074 6.074 0 0 1 -1.422-4.8c.46-2.108 2.714-3.92 6.185-4.973a29.864 29.864 0 0 1 14.633-.138z"/><path d="m309.353 27.67c-3.876-2.2-8.817-1.712-13.905 1.371a35.849 35.849 0 0 0 -11.991 12.974 35.842 35.842 0 0 0 -4.987 16.946c-.038 5.951 2.076 10.44 5.954 12.641a10.46 10.46 0 0 0 5.222 1.335c6.929 0 15.164-5.971 20.672-15.68a35.872 35.872 0 0 0 4.989-16.947c.038-5.952-2.077-10.44-5.954-12.64zm-4.253 26.63c-5.6 9.87-13.827 14.292-17.715 12.087-1.876-1.065-2.939-3.756-2.916-7.384a29.8 29.8 0 0 1 4.207-14.023 29.808 29.808 0 0 1 9.882-10.8 11.08 11.08 0 0 1 5.519-1.843 4.641 4.641 0 0 1 2.315.56c1.876 1.064 2.938 3.755 2.915 7.382a29.835 29.835 0 0 1 -4.207 14.021z"/><path d="m271.694 80.772c-7.33 4.611-7.167 17.613.372 29.6 5.786 9.2 13.989 14.74 20.8 14.74a10.577 10.577 0 0 0 5.713-1.582c3.774-2.374 5.685-6.954 5.377-12.9a35.846 35.846 0 0 0 -5.75-16.7 35.857 35.857 0 0 0 -12.564-12.418c-5.218-2.849-10.173-3.112-13.948-.74zm11.077 6.008a29.828 29.828 0 0 1 10.36 10.345 29.822 29.822 0 0 1 4.836 13.82c.187 3.623-.753 6.36-2.578 7.507-3.782 2.379-12.2-1.666-18.244-11.272s-6.039-18.951-2.257-21.328a4.768 4.768 0 0 1 2.575-.67 11.471 11.471 0 0 1 5.308 1.598z"/><path d="m242.551 83.284a10.279 10.279 0 0 0 1.638.132c3.856 0 7.679-2.179 10.915-6.265a35.853 35.853 0 0 0 6.715-16.34c2.256-13.982-2.673-26.014-11.221-27.394-4.4-.709-8.859 1.468-12.554 6.133a35.853 35.853 0 0 0 -6.715 16.34c-2.257 13.98 2.671 26.01 11.222 27.394zm-5.3-26.438a29.809 29.809 0 0 1 5.5-13.571c2.032-2.566 4.276-3.985 6.26-3.985a3.933 3.933 0 0 1 .635.051c4.408.711 8.06 9.311 6.253 20.514a29.816 29.816 0 0 1 -5.5 13.571c-2.253 2.844-4.765 4.283-6.893 3.934-4.406-.712-8.062-9.311-6.253-20.514z"/><path d="m193.435 69.513c-12.764 6.136-19.824 17.057-16.072 24.861 1.933 4.019 6.267 6.433 12.206 6.8q.78.048 1.581.048a37.007 37.007 0 0 0 15.666-3.873c12.764-6.137 19.824-17.058 16.072-24.862s-16.688-9.11-29.453-2.974zm10.782 22.427a29.75 29.75 0 0 1 -14.278 3.245c-3.621-.223-6.233-1.466-7.168-3.411-1.935-4.025 3.036-11.936 13.263-16.853s19.512-3.859 21.445.166-3.035 11.936-13.262 16.853z"/><path d="m496.649 406.843c-1.222-.275-29.859-7.127-27.163-43.438a3.172 3.172 0 0 0 -1.415-2.974 3 3 0 0 0 -3.97.772c-2.593 3.491-10.91 12.22-18.255 10.727-6.254-1.279-11.463-9.886-15.065-24.892a3 3 0 0 0 -4.275-1.975c-.38.193-36.67 18.536-66.78 26.2 0-3.84-.816-9.35-4.837-13.3-3.538-3.476-8.7-4.972-15.393-4.466 2.2-5.268 1.9-10.231-.991-14.148-4.518-6.116-14.014-8.073-24.877-5.368-.009-7.213-2.159-12.514-6.418-15.791-6.446-4.958-15.82-3.559-20.842-2.281-1.937-10.005-5.8-15.943-11.49-17.67-4.558-1.38-9.825.029-15.653 4.192a45.673 45.673 0 0 0 -4.605 3.789c-3.3-3.433-9.835-8.91-17.286-7.979-5.954.752-10.972 5.327-14.938 13.612-7.427-2.648-14.107-2.543-19.884.32-6.638 3.291-11.585 10.106-14.393 19.787h-.271c-9.116 0-16.177 2.484-20.528 7.249a18.371 18.371 0 0 0 -4.574 12.808c-10.314-.453-14.348 4.982-15.653 7.543a15.688 15.688 0 0 0 -.514 12.188l-51.2-19.691a3 3 0 0 0 -4 2.115c-.05.212-4.985 20.655-17.579 24.674-8.308-4.156-13.857-7.623-14-7.713a3 3 0 0 0 -4.57 2.975c.2 1.4 4.463 34.474-39.751 44.907a3.17 3.17 0 0 0 -2.355 2.085 3 3 0 0 0 1.62 3.6c88.158 40.448 171.836 60.92 248.927 60.919q5.486 0 10.929-.139a403.959 403.959 0 0 0 114.313-19.313 3.013 3.013 0 0 0 2.087-2.867 3.006 3.006 0 0 0 -3.94-2.853 397.948 397.948 0 0 1 -112.608 19.036c-77.011 1.945-161-17.168-249.753-56.861 12.651-4.262 26.467-12.374 33.084-27.813a45.206 45.206 0 0 0 3.585-15.778c4.139 2.357 10.684 5.872 18.5 9.331 18 7.96 33.361 11.561 45.665 10.672a3 3 0 0 0 -.428-5.984c-14.19 1-31.254-4.952-44.384-10.906 9.026-5.8 13.725-17.555 15.564-23.311l47.415 18.236a10.207 10.207 0 0 0 -4.92 5.006c-2.356 5.448 1.074 11.736 3.21 14.864-2.377 3.56-6.666 11.42-3.821 18.4 2.15 5.279 7.707 8.687 16.536 10.152.1 4.431 1.193 12.877 7.564 17.926 5.621 4.455 13.774 5.092 24.252 1.9 3.9 4.216 15.65 13.61 37.973 5.5 4.009 4.293 15.912 13.621 38.444 5.21 2.658 1.7 8.682 5 15.293 5a17.914 17.914 0 0 0 5.139-.729c5.2-1.55 9.279-5.44 12.17-11.582 4.529 2.37 13.224 5.869 21.515 3.328 5.793-1.777 10.264-6.094 13.309-12.842 4.039-.59 13.6-2.66 19.281-9.459a19.167 19.167 0 0 0 4.4-13.405c3-2.061 8.957-6.909 9.808-13.39a12.287 12.287 0 0 0 -2.591-9.109c1.791-2.587 4.283-7.2 3.549-12.048a11.334 11.334 0 0 0 -2.131-5.094c25.313-6.663 53.6-19.942 63.2-24.629 3.276 11.858 7.768 19.7 13.4 23.453l-61.819 23.823a3 3 0 1 0 2.158 5.6l70.056-27c5.352-.725 10.195-4.053 13.685-7.191 1.057 25.174 17.122 35.831 26.077 39.833a424.187 424.187 0 0 1 -56.7 31.932 3 3 0 0 0 2.525 5.449 432.073 432.073 0 0 0 62.438-35.722 3 3 0 0 0 -1.049-5.4zm-141.473-14.925a3 3 0 0 0 .09 4.148c2.041 2.041 2.9 4.035 2.637 6.092-.583 4.5-6.324 8.761-8.482 10.02a3 3 0 0 0 -1.481 2.922c.475 4.354-.468 7.88-2.882 10.779-5.533 6.642-16.877 7.547-16.987 7.556a3 3 0 0 0 -2.581 1.891c-2.334 5.921-5.757 9.613-10.173 10.976-8.895 2.746-19.44-4.317-19.541-4.386a3 3 0 0 0 -4.516 1.459c-2.221 6.167-5.445 9.925-9.583 11.169-7.626 2.292-16.465-4.212-16.548-4.274a3 3 0 0 0 -2.919-.389c-24.287 9.715-33.9-3.733-34.281-4.292a3 3 0 0 0 -3.611-1.121c-24.288 9.716-33.9-3.732-34.281-4.292a3 3 0 0 0 -3.464-1.176c-9.371 3.193-16.286 3.1-20.557-.266-6.182-4.875-5.271-15.448-5.262-15.547a3 3 0 0 0 -2.647-3.274c-5.543-.631-12.536-2.326-14.377-6.822-2-4.882 2.433-11.968 4.306-14.282a3.007 3.007 0 0 0 -.017-3.813c-1.414-1.708-5.133-7.313-3.729-10.544.9-2.079 4.344-3.4 9.686-3.719a3 3 0 0 0 1.942-5.116c-3.944-3.945-5.408-9.552-3.48-13.331 1.838-3.6 6.484-5.009 13.09-3.958a3 3 0 0 0 3.442-3.387c-.708-4.958.228-8.89 2.781-11.686 3.475-3.805 10.045-5.659 18.5-5.233a3.021 3.021 0 0 0 3.067-2.287c2.229-9.157 6.328-15.446 11.855-18.185 4.824-2.391 10.741-2.086 17.588.9a3 3 0 0 0 3.973-1.6c2.234-5.4 6.013-11.974 11.335-12.656 5.83-.739 12.085 5.686 14 8.223a3 3 0 0 0 4.643.193c2.471-2.78 10.8-10.336 16.42-8.63 3.83 1.162 6.547 6.764 7.857 16.2a3 3 0 0 0 4.035 2.391c3.362-1.273 13.242-3.692 18.523.371 3.322 2.555 4.624 7.542 3.871 14.822a3 3 0 0 0 3.975 3.14c11.354-3.975 19.509-1.746 22.282 2.006 2.28 3.087 1.464 7.6-2.3 12.7a3 3 0 0 0 3.066 4.708c7.716-1.717 13.173-1.076 16.218 1.9 4.33 4.227 2.807 12.254 2.793 12.326v.032c-.011.056-.013.113-.021.17a2.926 2.926 0 0 0 -.029.372c0 .064 0 .127.007.192a3.057 3.057 0 0 0 .046.383c.007.037 0 .073.014.11 0 .02.014.037.018.056a2.939 2.939 0 0 0 .171.51c.012.027.029.051.042.078a2.86 2.86 0 0 0 .221.383c.038.055.079.106.121.159a2.93 2.93 0 0 0 .221.252c.048.049.1.1.148.142a3.131 3.131 0 0 0 .272.211c.052.036.1.075.155.107.016.01.03.023.046.032 2.385 1.393 3.689 3.006 3.987 4.933.562 3.627-2.481 7.912-3.695 9.252z"/></g></svg>