<svg id="Layer_1" enable-background="new 0 0 468 468" height="512" viewBox="0 0 468 468" width="512" xmlns="http://www.w3.org/2000/svg"><g><g><g><g><g><path d="m412.931 151.283-314.382-46.972 52.9 228.487h255.92c10.114 0 18.368-8.08 18.565-18.174l2.813-144.652c.181-9.311-6.588-17.311-15.816-18.689z" fill="#fff"/></g><g><path d="m153.605 112.697-55.055-8.146 52.9 228.568h255.934c10.107 0 18.354-8.08 18.551-18.174l.648-33.31-53.979-5.212c-97.876-9.45-182.327-72.586-218.999-163.726z" fill="#e6e7e8"/></g><path d="m112.168 380.833 44.048-33.833h251.153c17.612 0 32.22-14.412 32.562-32.003l2.814-144.702c.318-16.294-11.609-30.424-27.743-32.834l-22.297-3.344-4.139 27.686 22.298 3.328c2.26.338 3.931 2.301 3.887 4.569l-2.813 144.752c-.048 2.452-2.097 4.546-4.567 4.546h-244.793l-45.749-197.701 34.73 5.138 4.138-27.718-45.896-6.87-13.305-51.572c-1.589-6.19-7.169-10.275-13.56-10.275h-57.686v28h46.826l63.705 269.32-40.701 31.294c-24.13 18.59-10.525 58.386 19.861 58.386h315.309v-28h-315.309c-4.25 0-6.181-5.541-2.773-8.167z" fill="#3e4d6c"/></g><g><ellipse cx="354.558" cy="431.961" fill="#0795fe" rx="36.077" ry="36.039"/></g><g><ellipse cx="193.798" cy="431.961" fill="#0795fe" rx="36.077" ry="36.039"/></g></g></g><g><g><ellipse cx="276.234" cy="97.82" fill="#0795fe" rx="97.923" ry="97.82"/></g><g><path d="m251.006 134.26-23.181-27.503 21.41-18.045 13.053 15.487 39.962-42.454 20.389 19.191-50.733 53.897c-6.489 6.5-15.155 5.834-20.9-.573z" fill="#fff"/></g></g></g></svg>