<svg height="512" viewBox="0 0 50 50" width="512" xmlns="http://www.w3.org/2000/svg"><g id="Neolatte"><path d="m47.50581 23.46-3.39533-10.51078a4.96658 4.96658 0 0 0 -1.80731-2.5l-8.88012-6.48922a4.94962 4.94962 0 0 0 -2.93973-.96h-10.96664a4.95216 4.95216 0 0 0 -2.94022.96l-8.87963 6.48922a4.96282 4.96282 0 0 0 -1.80682 2.5l-3.39631 10.51078a4.98323 4.98323 0 0 0 .00049 3.08l3.39533 10.51078a4.96658 4.96658 0 0 0 1.80731 2.5l8.88017 6.48922a4.94962 4.94962 0 0 0 2.93973.96h10.96659a4.95216 4.95216 0 0 0 2.94022-.96l8.87963-6.48926a4.96282 4.96282 0 0 0 1.80682-2.5l3.39631-10.51074a4.98323 4.98323 0 0 0 -.00049-3.08zm-1.89842 2.4648-3.39632 10.51075a2.97831 2.97831 0 0 1 -1.08419 1.5l-8.87914 6.48925a2.97561 2.97561 0 0 1 -1.76442.5752h-10.96664a2.97312 2.97312 0 0 1 -1.76394-.5752l-8.87962-6.48925a2.98207 2.98207 0 0 1 -1.08468-1.5l-3.39534-10.51075a2.99481 2.99481 0 0 1 -.00049-1.8496l3.39632-10.51075a2.97831 2.97831 0 0 1 1.08419-1.5l8.87914-6.48925a2.97561 2.97561 0 0 1 1.76442-.5752h10.96664a2.97312 2.97312 0 0 1 1.76394.5752l8.87962 6.48925a2.98207 2.98207 0 0 1 1.08468 1.5l3.39534 10.51075a2.99481 2.99481 0 0 1 .00049 1.8496z" fill="#123757"/><path d="m29.98971 45h-10.47331a2.98967 2.98967 0 0 1 -1.76414-.57617l-8.87914-6.48926a2.97288 2.97288 0 0 1 -1.08468-1.499l-2.93291-9.0791a1.99485 1.99485 0 0 1 2.51356 1.28672l2.31826 7.17715a.99268.99268 0 0 0 .35876.49636l8.88073 6.49068a.99959.99959 0 0 0 .58984.19262h8.47715a1.998 1.998 0 0 1 1.99588 2z" fill="#c7cde8"/><g fill="#40c9e4"><path d="m31.76735 29.76685a11.37049 11.37049 0 0 1 -13.53488-.00013 13.95584 13.95584 0 0 0 -2.862 2.09949 2.89958 2.89958 0 0 0 -.688 3.22852 3.003 3.003 0 0 0 2.79545 1.90527h15.04416a3.003 3.003 0 0 0 2.7955-1.90527 2.89835 2.89835 0 0 0 -.68758-3.22754 13.95615 13.95615 0 0 0 -2.86265-2.10034z"/><path d="m25 11a9.5 9.5 0 1 0 9.48044 9.5 9.49884 9.49884 0 0 0 -9.48044-9.5zm0 17a7.48614 7.48614 0 0 1 -7.46458-7.05 9.32159 9.32159 0 0 0 7.46458-2.53 9.44 9.44 0 0 0 6.48662 2.58 8.15157 8.15157 0 0 0 .978-.06 7.48073 7.48073 0 0 1 -7.46462 7.06z"/></g></g></svg>