<svg id="Layer_1" viewBox="0 0 512 512" xmlns="http://www.w3.org/2000/svg" data-name="Layer 1"><g fill-rule="evenodd"><path d="m317.326 17.915 72.061 72.061c.208.205.403.423.582.655s.086.115.086.115l.029.04.059.082.038.055.047.07.043.065.044.068.033.053.061.101.012.02.064.111.017.031.056.104.019.035.062.123v.002c.424.853.661 1.813.661 2.83v37.467c45.701-12.473 67.227-19.128 67.296-19.149 3.363-1.033 6.927.854 7.96 4.217.055.178.101.358.14.537 13.277 54.331 21.221 82.438 21.245 82.52.951 3.39-1.027 6.909-4.417 7.86-1.712.48-3.457.213-4.887-.605l-.004.006-23.801-13.634c-19.516 25.735-40.695 48.627-63.532 68.677v56.3s0 139.585 0 139.585v.021s0 13.023 0 13.023c0 6.789-2.766 12.95-7.228 17.411-4.461 4.461-10.622 7.228-17.411 7.228h-318.203c-6.789 0-12.95-2.766-17.411-7.227s-7.227-10.622-7.227-17.411v-430.723c0-6.789 2.766-12.95 7.227-17.411s10.622-7.227 17.411-7.227h264.308l.165.002h.002l.145.006h.017s.004 0 .004 0h.004s.141.009.141.009h.014s.005.002.005.002h.004c.096.008.191.017.286.029l.027.003h.009s.008.002.008.002l.14.02h.002s.01.002.01.002l.147.025.012.002.126.025.018.003.013.003.116.025.025.005.015.004c.096.023.192.047.286.074l.007.002.132.039.016.005.02.006.121.04.009.003.021.007.105.038.021.007.022.008.097.037.046.018.004.002.073.03.048.02.008.003.089.039.046.02.026.012.093.044.037.018.011.005.07.035.041.021.028.015.091.048.017.009.029.016.068.038.011.006.047.027.01.006.067.04.063.038.004.003.066.041.013.008.048.031.005.003.065.043.006.004.049.033.009.006.064.045.06.043.003.002.063.046.062.047.062.047.057.045.004.003.06.049.06.049.059.05.054.047.005.004.058.051.047.042.011.01.057.053c.058.055.115.111.171.168zm74.254 140.143v14.627c2.216-3.592 4.385-7.225 6.505-10.901zm75.345 306.669c3.528 0 6.388-2.86 6.388-6.388v-209.45c0-3.528-2.86-6.388-6.388-6.388-2.097 0-3.959 1.011-5.123 2.572-6.893 7.671-14.446 15.325-22.596 22.91-8.22 7.65-16.901 15.095-25.977 22.281-1.753 1.139-2.913 3.114-2.913 5.36v162.714c0 3.528 2.86 6.388 6.388 6.388h50.222z"/><path d="m378.804 101.618h-50.471c-11.935 0-21.677-9.741-21.677-21.676v-50.471h-257.92c-6.526 0-11.863 5.337-11.863 11.863v430.722c0 6.526 5.337 11.863 11.863 11.863h318.205c6.525 0 11.863-5.338 11.863-11.863v-6.634h-43.834c-3.528 0-6.388-2.86-6.388-6.388v-109.852c0-2.667 1.635-4.952 3.957-5.908 8.307-4.36 16.599-8.998 24.844-13.886 7.388-4.38 14.534-8.846 21.421-13.383v-42.098c-14.753 11.956-30.161 22.785-46.226 32.487-47.746 28.833-101.254 47.7-160.511 56.58-7.688 1.265-10.487-9.542-3.39-12.247 52.615-20.077 98.313-46.352 137.07-78.785 27.949-23.389 52.304-49.987 73.057-79.777v-41.424l-3.896-2.232c-4.908-2.809-4.045-10.281 1.67-11.742l2.227-.6v-34.547zm-164.578-42.531c35.841 3.06 64.401 31.62 67.461 67.462h4.025c3.528 0 6.388 2.86 6.388 6.388 0 46.535-37.727 84.262-84.262 84.262s-84.262-37.727-84.262-84.262 37.727-84.262 84.262-84.262c3.528 0 6.388 2.86 6.388 6.388v4.025zm-149.383 204.694c-3.528 0-6.388-2.86-6.388-6.388s2.86-6.388 6.388-6.388h222.163c3.528 0 6.388 2.86 6.388 6.388s-2.86 6.388-6.388 6.388zm0 46.582c-3.528 0-6.388-2.86-6.388-6.388s2.86-6.388 6.388-6.388h154.897c3.528 0 6.388 2.86 6.388 6.388s-2.86 6.388-6.388 6.388zm0 46.582c-3.528 0-6.388-2.86-6.388-6.388s2.86-6.388 6.388-6.388h79.371c3.528 0 6.388 2.86 6.388 6.388s-2.86 6.388-6.388 6.388zm0 93.165c-3.528 0-6.388-2.86-6.388-6.388s2.86-6.388 6.388-6.388h79.371c3.528 0 6.388 2.86 6.388 6.388s-2.86 6.388-6.388 6.388zm0-46.582c-3.528 0-6.388-2.86-6.388-6.388s2.86-6.388 6.388-6.388h79.371c3.528 0 6.388 2.86 6.388 6.388s-2.86 6.388-6.388 6.388zm156.327 61.893h-50.223c-3.528 0-6.388-2.86-6.388-6.388v-55.108c0-3.316 2.527-6.042 5.76-6.357 8.276-1.242 16.396-2.692 24.35-4.335 8.1-1.673 16.255-3.59 24.442-5.733 4.57-1.374 8.447 1.921 8.447 6.049v65.484c0 3.528-2.86 6.388-6.388 6.388zm82.011 0h-50.222c-3.528 0-6.388-2.86-6.388-6.388v-74.946c0-3.036 2.118-5.577 4.958-6.227 8.11-2.708 16.242-5.65 24.373-8.81 8.168-3.174 16.245-6.542 24.208-10.083 4.861-2.411 9.458 1.17 9.458 5.603v94.464c0 3.528-2.86 6.388-6.388 6.388z" fill="#e9e5dc"/><path d="m369.771 88.843-50.339-50.339v41.438c0 4.882 4.018 8.901 8.901 8.901z" fill="#204a5d"/><path d="m313.931 281.723c-25.222 21.106-53.267 39.662-84.126 55.66 34.383-9.985 66.446-23.959 96.185-41.918 48.17-29.09 88.518-67.649 122.054-112.816 1.827-2.829 5.569-3.764 8.527-2.072l15.315 8.773c-3.363-12.615-8.723-33.207-15.724-61.677-9.598 2.858-29.961 8.799-61.539 17.419 5.086 2.913 10.155 5.816 15.274 8.662 3.254 1.809 4.237 5.776 2.198 9.144-25.371 45.405-58.089 85.29-98.164 118.826z" fill="#ef6262"/><path d="m177.335 452.646h37.447v-50.9c-12.268 3.004-25.049 5.626-37.447 7.64z" fill="#ef6262"/><path d="m259.347 452.646h37.446v-78.35c-12.334 5.245-24.68 9.985-37.446 14.349v64z" fill="#204a5d"/><path d="m341.358 452.646h37.446v-121.464c-12.263 7.819-24.409 14.889-37.446 21.823v99.642z" fill="#fabc57"/><path d="m423.368 452.646h37.446v-186.951c-11.682 11.913-24.085 22.979-37.446 33.671z" fill="#24809d"/><path d="m268.855 126.549c-2.978-28.781-25.848-51.651-54.629-54.629v54.629z" fill="#ef6262"/><path d="m201.45 132.937v-71.205c-36.64 3.244-65.098 34.027-65.098 71.205 0 39.482 32.004 71.486 71.486 71.486 37.178 0 67.96-28.459 71.205-65.098h-71.205c-3.528 0-6.388-2.86-6.388-6.388z" fill="#fabc57"/></g></svg>